# Generated: Mon Oct 27 11:08:59 2003
# Command: ./sphere -s 10 -r 10 
v 0.010000 0.000000 0.999950
vt 0.000000 0.000000
r -0.000000 1.000000 0.000000
vn 0.010000 0.000000 0.999950
v 0.309017 0.000000 0.951057
vt 0.000000 0.100000
r -0.000000 1.000000 0.000000
vn 0.309017 0.000000 0.951057
v 0.587785 0.000000 0.809017
vt 0.000000 0.200000
r -0.000000 1.000000 0.000000
vn 0.587785 0.000000 0.809017
v 0.809017 0.000000 0.587785
vt 0.000000 0.300000
r -0.000000 1.000000 0.000000
vn 0.809017 0.000000 0.587785
v 0.951057 0.000000 0.309017
vt 0.000000 0.400000
r -0.000000 1.000000 0.000000
vn 0.951057 0.000000 0.309017
v 1.000000 0.000000 0.000000
vt 0.000000 0.500000
r -0.000000 1.000000 0.000000
vn 1.000000 0.000000 0.000000
v 0.951057 0.000000 -0.309017
vt 0.000000 0.600000
r -0.000000 1.000000 0.000000
vn 0.951057 0.000000 -0.309017
v 0.809017 0.000000 -0.587785
vt 0.000000 0.700000
r -0.000000 1.000000 0.000000
vn 0.809017 0.000000 -0.587785
v 0.587785 0.000000 -0.809017
vt 0.000000 0.800000
r -0.000000 1.000000 0.000000
vn 0.587785 0.000000 -0.809017
v 0.309017 0.000000 -0.951057
vt 0.000000 0.900000
r -0.000000 1.000000 0.000000
vn 0.309017 0.000000 -0.951057
v 0.010000 0.000000 -0.999950
vt 0.000000 1.000000
r -0.000000 1.000000 0.000000
vn 0.010000 0.000000 -0.999950
v 0.008090 0.005878 0.999950
vt 0.100000 0.000000
r -0.587785 0.809017 0.000000
vn 0.008090 0.005878 0.999950
v 0.250000 0.181636 0.951057
vt 0.100000 0.100000
r -0.587785 0.809017 0.000000
vn 0.250000 0.181636 0.951057
v 0.475528 0.345492 0.809017
vt 0.100000 0.200000
r -0.587785 0.809017 0.000000
vn 0.475528 0.345492 0.809017
v 0.654508 0.475528 0.587785
vt 0.100000 0.300000
r -0.587785 0.809017 0.000000
vn 0.654508 0.475528 0.587785
v 0.769421 0.559017 0.309017
vt 0.100000 0.400000
r -0.587785 0.809017 0.000000
vn 0.769421 0.559017 0.309017
v 0.809017 0.587785 0.000000
vt 0.100000 0.500000
r -0.587785 0.809017 0.000000
vn 0.809017 0.587785 0.000000
v 0.769421 0.559017 -0.309017
vt 0.100000 0.600000
r -0.587785 0.809017 0.000000
vn 0.769421 0.559017 -0.309017
v 0.654508 0.475528 -0.587785
vt 0.100000 0.700000
r -0.587785 0.809017 0.000000
vn 0.654508 0.475528 -0.587785
v 0.475528 0.345492 -0.809017
vt 0.100000 0.800000
r -0.587785 0.809017 0.000000
vn 0.475528 0.345492 -0.809017
v 0.250000 0.181636 -0.951057
vt 0.100000 0.900000
r -0.587785 0.809017 0.000000
vn 0.250000 0.181636 -0.951057
v 0.008090 0.005878 -0.999950
vt 0.100000 1.000000
r -0.587785 0.809017 0.000000
vn 0.008090 0.005878 -0.999950
v 0.003090 0.009510 0.999950
vt 0.200000 0.000000
r -0.951057 0.309017 0.000000
vn 0.003090 0.009510 0.999950
v 0.095492 0.293893 0.951057
vt 0.200000 0.100000
r -0.951057 0.309017 0.000000
vn 0.095492 0.293893 0.951057
v 0.181636 0.559017 0.809017
vt 0.200000 0.200000
r -0.951057 0.309017 0.000000
vn 0.181636 0.559017 0.809017
v 0.250000 0.769421 0.587785
vt 0.200000 0.300000
r -0.951057 0.309017 0.000000
vn 0.250000 0.769421 0.587785
v 0.293893 0.904508 0.309017
vt 0.200000 0.400000
r -0.951057 0.309017 0.000000
vn 0.293893 0.904508 0.309017
v 0.309017 0.951057 0.000000
vt 0.200000 0.500000
r -0.951057 0.309017 0.000000
vn 0.309017 0.951057 0.000000
v 0.293893 0.904508 -0.309017
vt 0.200000 0.600000
r -0.951057 0.309017 0.000000
vn 0.293893 0.904508 -0.309017
v 0.250000 0.769421 -0.587785
vt 0.200000 0.700000
r -0.951057 0.309017 0.000000
vn 0.250000 0.769421 -0.587785
v 0.181636 0.559017 -0.809017
vt 0.200000 0.800000
r -0.951057 0.309017 0.000000
vn 0.181636 0.559017 -0.809017
v 0.095492 0.293893 -0.951057
vt 0.200000 0.900000
r -0.951057 0.309017 0.000000
vn 0.095492 0.293893 -0.951057
v 0.003090 0.009510 -0.999950
vt 0.200000 1.000000
r -0.951057 0.309017 0.000000
vn 0.003090 0.009510 -0.999950
v -0.003090 0.009510 0.999950
vt 0.300000 0.000000
r -0.951057 -0.309017 0.000000
vn -0.003090 0.009510 0.999950
v -0.095492 0.293893 0.951057
vt 0.300000 0.100000
r -0.951057 -0.309017 0.000000
vn -0.095492 0.293893 0.951057
v -0.181636 0.559017 0.809017
vt 0.300000 0.200000
r -0.951057 -0.309017 0.000000
vn -0.181636 0.559017 0.809017
v -0.250000 0.769421 0.587785
vt 0.300000 0.300000
r -0.951057 -0.309017 0.000000
vn -0.250000 0.769421 0.587785
v -0.293893 0.904508 0.309017
vt 0.300000 0.400000
r -0.951057 -0.309017 0.000000
vn -0.293893 0.904508 0.309017
v -0.309017 0.951057 0.000000
vt 0.300000 0.500000
r -0.951057 -0.309017 0.000000
vn -0.309017 0.951057 0.000000
v -0.293893 0.904508 -0.309017
vt 0.300000 0.600000
r -0.951057 -0.309017 0.000000
vn -0.293893 0.904508 -0.309017
v -0.250000 0.769421 -0.587785
vt 0.300000 0.700000
r -0.951057 -0.309017 0.000000
vn -0.250000 0.769421 -0.587785
v -0.181636 0.559017 -0.809017
vt 0.300000 0.800000
r -0.951057 -0.309017 0.000000
vn -0.181636 0.559017 -0.809017
v -0.095492 0.293893 -0.951057
vt 0.300000 0.900000
r -0.951057 -0.309017 0.000000
vn -0.095492 0.293893 -0.951057
v -0.003090 0.009510 -0.999950
vt 0.300000 1.000000
r -0.951057 -0.309017 0.000000
vn -0.003090 0.009510 -0.999950
v -0.008090 0.005878 0.999950
vt 0.400000 0.000000
r -0.587785 -0.809017 0.000000
vn -0.008090 0.005878 0.999950
v -0.250000 0.181636 0.951057
vt 0.400000 0.100000
r -0.587785 -0.809017 0.000000
vn -0.250000 0.181636 0.951057
v -0.475528 0.345492 0.809017
vt 0.400000 0.200000
r -0.587785 -0.809017 0.000000
vn -0.475528 0.345492 0.809017
v -0.654508 0.475528 0.587785
vt 0.400000 0.300000
r -0.587785 -0.809017 0.000000
vn -0.654508 0.475528 0.587785
v -0.769421 0.559017 0.309017
vt 0.400000 0.400000
r -0.587785 -0.809017 0.000000
vn -0.769421 0.559017 0.309017
v -0.809017 0.587785 0.000000
vt 0.400000 0.500000
r -0.587785 -0.809017 0.000000
vn -0.809017 0.587785 0.000000
v -0.769421 0.559017 -0.309017
vt 0.400000 0.600000
r -0.587785 -0.809017 0.000000
vn -0.769421 0.559017 -0.309017
v -0.654508 0.475528 -0.587785
vt 0.400000 0.700000
r -0.587785 -0.809017 0.000000
vn -0.654508 0.475528 -0.587785
v -0.475528 0.345492 -0.809017
vt 0.400000 0.800000
r -0.587785 -0.809017 0.000000
vn -0.475528 0.345492 -0.809017
v -0.250000 0.181636 -0.951057
vt 0.400000 0.900000
r -0.587785 -0.809017 0.000000
vn -0.250000 0.181636 -0.951057
v -0.008090 0.005878 -0.999950
vt 0.400000 1.000000
r -0.587785 -0.809017 0.000000
vn -0.008090 0.005878 -0.999950
v -0.010000 0.000000 0.999950
vt 0.500000 0.000000
r -0.000000 -1.000000 0.000000
vn -0.010000 0.000000 0.999950
v -0.309017 0.000000 0.951057
vt 0.500000 0.100000
r -0.000000 -1.000000 0.000000
vn -0.309017 0.000000 0.951057
v -0.587785 0.000000 0.809017
vt 0.500000 0.200000
r -0.000000 -1.000000 0.000000
vn -0.587785 0.000000 0.809017
v -0.809017 0.000000 0.587785
vt 0.500000 0.300000
r -0.000000 -1.000000 0.000000
vn -0.809017 0.000000 0.587785
v -0.951057 0.000000 0.309017
vt 0.500000 0.400000
r -0.000000 -1.000000 0.000000
vn -0.951057 0.000000 0.309017
v -1.000000 0.000000 0.000000
vt 0.500000 0.500000
r -0.000000 -1.000000 0.000000
vn -1.000000 0.000000 0.000000
v -0.951057 0.000000 -0.309017
vt 0.500000 0.600000
r -0.000000 -1.000000 0.000000
vn -0.951057 0.000000 -0.309017
v -0.809017 0.000000 -0.587785
vt 0.500000 0.700000
r -0.000000 -1.000000 0.000000
vn -0.809017 0.000000 -0.587785
v -0.587785 0.000000 -0.809017
vt 0.500000 0.800000
r -0.000000 -1.000000 0.000000
vn -0.587785 0.000000 -0.809017
v -0.309017 0.000000 -0.951057
vt 0.500000 0.900000
r -0.000000 -1.000000 0.000000
vn -0.309017 0.000000 -0.951057
v -0.010000 0.000000 -0.999950
vt 0.500000 1.000000
r -0.000000 -1.000000 0.000000
vn -0.010000 0.000000 -0.999950
v -0.008090 -0.005878 0.999950
vt 0.600000 0.000000
r 0.587785 -0.809017 0.000000
vn -0.008090 -0.005878 0.999950
v -0.250000 -0.181636 0.951057
vt 0.600000 0.100000
r 0.587785 -0.809017 0.000000
vn -0.250000 -0.181636 0.951057
v -0.475528 -0.345492 0.809017
vt 0.600000 0.200000
r 0.587785 -0.809017 0.000000
vn -0.475528 -0.345492 0.809017
v -0.654508 -0.475528 0.587785
vt 0.600000 0.300000
r 0.587785 -0.809017 0.000000
vn -0.654508 -0.475528 0.587785
v -0.769421 -0.559017 0.309017
vt 0.600000 0.400000
r 0.587785 -0.809017 0.000000
vn -0.769421 -0.559017 0.309017
v -0.809017 -0.587785 0.000000
vt 0.600000 0.500000
r 0.587785 -0.809017 0.000000
vn -0.809017 -0.587785 0.000000
v -0.769421 -0.559017 -0.309017
vt 0.600000 0.600000
r 0.587785 -0.809017 0.000000
vn -0.769421 -0.559017 -0.309017
v -0.654508 -0.475528 -0.587785
vt 0.600000 0.700000
r 0.587785 -0.809017 0.000000
vn -0.654508 -0.475528 -0.587785
v -0.475528 -0.345492 -0.809017
vt 0.600000 0.800000
r 0.587785 -0.809017 0.000000
vn -0.475528 -0.345492 -0.809017
v -0.250000 -0.181636 -0.951057
vt 0.600000 0.900000
r 0.587785 -0.809017 0.000000
vn -0.250000 -0.181636 -0.951057
v -0.008090 -0.005878 -0.999950
vt 0.600000 1.000000
r 0.587785 -0.809017 0.000000
vn -0.008090 -0.005878 -0.999950
v -0.003090 -0.009510 0.999950
vt 0.700000 0.000000
r 0.951057 -0.309017 0.000000
vn -0.003090 -0.009510 0.999950
v -0.095492 -0.293893 0.951057
vt 0.700000 0.100000
r 0.951057 -0.309017 0.000000
vn -0.095492 -0.293893 0.951057
v -0.181636 -0.559017 0.809017
vt 0.700000 0.200000
r 0.951057 -0.309017 0.000000
vn -0.181636 -0.559017 0.809017
v -0.250000 -0.769421 0.587785
vt 0.700000 0.300000
r 0.951057 -0.309017 0.000000
vn -0.250000 -0.769421 0.587785
v -0.293893 -0.904508 0.309017
vt 0.700000 0.400000
r 0.951057 -0.309017 0.000000
vn -0.293893 -0.904508 0.309017
v -0.309017 -0.951057 0.000000
vt 0.700000 0.500000
r 0.951057 -0.309017 0.000000
vn -0.309017 -0.951057 0.000000
v -0.293893 -0.904508 -0.309017
vt 0.700000 0.600000
r 0.951057 -0.309017 0.000000
vn -0.293893 -0.904508 -0.309017
v -0.250000 -0.769421 -0.587785
vt 0.700000 0.700000
r 0.951057 -0.309017 0.000000
vn -0.250000 -0.769421 -0.587785
v -0.181636 -0.559017 -0.809017
vt 0.700000 0.800000
r 0.951057 -0.309017 0.000000
vn -0.181636 -0.559017 -0.809017
v -0.095492 -0.293893 -0.951057
vt 0.700000 0.900000
r 0.951057 -0.309017 0.000000
vn -0.095492 -0.293893 -0.951057
v -0.003090 -0.009510 -0.999950
vt 0.700000 1.000000
r 0.951057 -0.309017 0.000000
vn -0.003090 -0.009510 -0.999950
v 0.003090 -0.009510 0.999950
vt 0.800000 0.000000
r 0.951057 0.309017 0.000000
vn 0.003090 -0.009510 0.999950
v 0.095492 -0.293893 0.951057
vt 0.800000 0.100000
r 0.951057 0.309017 0.000000
vn 0.095492 -0.293893 0.951057
v 0.181636 -0.559017 0.809017
vt 0.800000 0.200000
r 0.951057 0.309017 0.000000
vn 0.181636 -0.559017 0.809017
v 0.250000 -0.769421 0.587785
vt 0.800000 0.300000
r 0.951057 0.309017 0.000000
vn 0.250000 -0.769421 0.587785
v 0.293893 -0.904508 0.309017
vt 0.800000 0.400000
r 0.951057 0.309017 0.000000
vn 0.293893 -0.904508 0.309017
v 0.309017 -0.951057 0.000000
vt 0.800000 0.500000
r 0.951057 0.309017 0.000000
vn 0.309017 -0.951057 0.000000
v 0.293893 -0.904508 -0.309017
vt 0.800000 0.600000
r 0.951057 0.309017 0.000000
vn 0.293893 -0.904508 -0.309017
v 0.250000 -0.769421 -0.587785
vt 0.800000 0.700000
r 0.951057 0.309017 0.000000
vn 0.250000 -0.769421 -0.587785
v 0.181636 -0.559017 -0.809017
vt 0.800000 0.800000
r 0.951057 0.309017 0.000000
vn 0.181636 -0.559017 -0.809017
v 0.095492 -0.293893 -0.951057
vt 0.800000 0.900000
r 0.951057 0.309017 0.000000
vn 0.095492 -0.293893 -0.951057
v 0.003090 -0.009510 -0.999950
vt 0.800000 1.000000
r 0.951057 0.309017 0.000000
vn 0.003090 -0.009510 -0.999950
v 0.008090 -0.005878 0.999950
vt 0.900000 0.000000
r 0.587785 0.809017 0.000000
vn 0.008090 -0.005878 0.999950
v 0.250000 -0.181636 0.951057
vt 0.900000 0.100000
r 0.587785 0.809017 0.000000
vn 0.250000 -0.181636 0.951057
v 0.475528 -0.345492 0.809017
vt 0.900000 0.200000
r 0.587785 0.809017 0.000000
vn 0.475528 -0.345492 0.809017
v 0.654508 -0.475528 0.587785
vt 0.900000 0.300000
r 0.587785 0.809017 0.000000
vn 0.654508 -0.475528 0.587785
v 0.769421 -0.559017 0.309017
vt 0.900000 0.400000
r 0.587785 0.809017 0.000000
vn 0.769421 -0.559017 0.309017
v 0.809017 -0.587785 0.000000
vt 0.900000 0.500000
r 0.587785 0.809017 0.000000
vn 0.809017 -0.587785 0.000000
v 0.769421 -0.559017 -0.309017
vt 0.900000 0.600000
r 0.587785 0.809017 0.000000
vn 0.769421 -0.559017 -0.309017
v 0.654508 -0.475528 -0.587785
vt 0.900000 0.700000
r 0.587785 0.809017 0.000000
vn 0.654508 -0.475528 -0.587785
v 0.475528 -0.345492 -0.809017
vt 0.900000 0.800000
r 0.587785 0.809017 0.000000
vn 0.475528 -0.345492 -0.809017
v 0.250000 -0.181636 -0.951057
vt 0.900000 0.900000
r 0.587785 0.809017 0.000000
vn 0.250000 -0.181636 -0.951057
v 0.008090 -0.005878 -0.999950
vt 0.900000 1.000000
r 0.587785 0.809017 0.000000
vn 0.008090 -0.005878 -0.999950
v 0.010000 -0.000000 0.999950
vt 1.000000 0.000000
r 0.000000 1.000000 0.000000
vn 0.010000 -0.000000 0.999950
v 0.309017 -0.000000 0.951057
vt 1.000000 0.100000
r 0.000000 1.000000 0.000000
vn 0.309017 -0.000000 0.951057
v 0.587785 -0.000000 0.809017
vt 1.000000 0.200000
r 0.000000 1.000000 0.000000
vn 0.587785 -0.000000 0.809017
v 0.809017 -0.000000 0.587785
vt 1.000000 0.300000
r 0.000000 1.000000 0.000000
vn 0.809017 -0.000000 0.587785
v 0.951057 -0.000000 0.309017
vt 1.000000 0.400000
r 0.000000 1.000000 0.000000
vn 0.951057 -0.000000 0.309017
v 1.000000 -0.000000 0.000000
vt 1.000000 0.500000
r 0.000000 1.000000 0.000000
vn 1.000000 -0.000000 0.000000
v 0.951057 -0.000000 -0.309017
vt 1.000000 0.600000
r 0.000000 1.000000 0.000000
vn 0.951057 -0.000000 -0.309017
v 0.809017 -0.000000 -0.587785
vt 1.000000 0.700000
r 0.000000 1.000000 0.000000
vn 0.809017 -0.000000 -0.587785
v 0.587785 -0.000000 -0.809017
vt 1.000000 0.800000
r 0.000000 1.000000 0.000000
vn 0.587785 -0.000000 -0.809017
v 0.309017 -0.000000 -0.951057
vt 1.000000 0.900000
r 0.000000 1.000000 0.000000
vn 0.309017 -0.000000 -0.951057
v 0.010000 -0.000000 -0.999950
vt 1.000000 1.000000
r 0.000000 1.000000 0.000000
vn 0.010000 -0.000000 -0.999950
f 1/1/1 2/2/2 12/12/12
f 2/2/2 13/13/13 12/12/12
f 2/2/2 3/3/3 13/13/13
f 3/3/3 14/14/14 13/13/13
f 3/3/3 4/4/4 14/14/14
f 4/4/4 15/15/15 14/14/14
f 4/4/4 5/5/5 15/15/15
f 5/5/5 16/16/16 15/15/15
f 5/5/5 6/6/6 16/16/16
f 6/6/6 17/17/17 16/16/16
f 6/6/6 7/7/7 17/17/17
f 7/7/7 18/18/18 17/17/17
f 7/7/7 8/8/8 18/18/18
f 8/8/8 19/19/19 18/18/18
f 8/8/8 9/9/9 19/19/19
f 9/9/9 20/20/20 19/19/19
f 9/9/9 10/10/10 20/20/20
f 10/10/10 21/21/21 20/20/20
f 10/10/10 11/11/11 21/21/21
f 11/11/11 22/22/22 21/21/21
f 12/12/12 13/13/13 23/23/23
f 13/13/13 24/24/24 23/23/23
f 13/13/13 14/14/14 24/24/24
f 14/14/14 25/25/25 24/24/24
f 14/14/14 15/15/15 25/25/25
f 15/15/15 26/26/26 25/25/25
f 15/15/15 16/16/16 26/26/26
f 16/16/16 27/27/27 26/26/26
f 16/16/16 17/17/17 27/27/27
f 17/17/17 28/28/28 27/27/27
f 17/17/17 18/18/18 28/28/28
f 18/18/18 29/29/29 28/28/28
f 18/18/18 19/19/19 29/29/29
f 19/19/19 30/30/30 29/29/29
f 19/19/19 20/20/20 30/30/30
f 20/20/20 31/31/31 30/30/30
f 20/20/20 21/21/21 31/31/31
f 21/21/21 32/32/32 31/31/31
f 21/21/21 22/22/22 32/32/32
f 22/22/22 33/33/33 32/32/32
f 23/23/23 24/24/24 34/34/34
f 24/24/24 35/35/35 34/34/34
f 24/24/24 25/25/25 35/35/35
f 25/25/25 36/36/36 35/35/35
f 25/25/25 26/26/26 36/36/36
f 26/26/26 37/37/37 36/36/36
f 26/26/26 27/27/27 37/37/37
f 27/27/27 38/38/38 37/37/37
f 27/27/27 28/28/28 38/38/38
f 28/28/28 39/39/39 38/38/38
f 28/28/28 29/29/29 39/39/39
f 29/29/29 40/40/40 39/39/39
f 29/29/29 30/30/30 40/40/40
f 30/30/30 41/41/41 40/40/40
f 30/30/30 31/31/31 41/41/41
f 31/31/31 42/42/42 41/41/41
f 31/31/31 32/32/32 42/42/42
f 32/32/32 43/43/43 42/42/42
f 32/32/32 33/33/33 43/43/43
f 33/33/33 44/44/44 43/43/43
f 34/34/34 35/35/35 45/45/45
f 35/35/35 46/46/46 45/45/45
f 35/35/35 36/36/36 46/46/46
f 36/36/36 47/47/47 46/46/46
f 36/36/36 37/37/37 47/47/47
f 37/37/37 48/48/48 47/47/47
f 37/37/37 38/38/38 48/48/48
f 38/38/38 49/49/49 48/48/48
f 38/38/38 39/39/39 49/49/49
f 39/39/39 50/50/50 49/49/49
f 39/39/39 40/40/40 50/50/50
f 40/40/40 51/51/51 50/50/50
f 40/40/40 41/41/41 51/51/51
f 41/41/41 52/52/52 51/51/51
f 41/41/41 42/42/42 52/52/52
f 42/42/42 53/53/53 52/52/52
f 42/42/42 43/43/43 53/53/53
f 43/43/43 54/54/54 53/53/53
f 43/43/43 44/44/44 54/54/54
f 44/44/44 55/55/55 54/54/54
f 45/45/45 46/46/46 56/56/56
f 46/46/46 57/57/57 56/56/56
f 46/46/46 47/47/47 57/57/57
f 47/47/47 58/58/58 57/57/57
f 47/47/47 48/48/48 58/58/58
f 48/48/48 59/59/59 58/58/58
f 48/48/48 49/49/49 59/59/59
f 49/49/49 60/60/60 59/59/59
f 49/49/49 50/50/50 60/60/60
f 50/50/50 61/61/61 60/60/60
f 50/50/50 51/51/51 61/61/61
f 51/51/51 62/62/62 61/61/61
f 51/51/51 52/52/52 62/62/62
f 52/52/52 63/63/63 62/62/62
f 52/52/52 53/53/53 63/63/63
f 53/53/53 64/64/64 63/63/63
f 53/53/53 54/54/54 64/64/64
f 54/54/54 65/65/65 64/64/64
f 54/54/54 55/55/55 65/65/65
f 55/55/55 66/66/66 65/65/65
f 56/56/56 57/57/57 67/67/67
f 57/57/57 68/68/68 67/67/67
f 57/57/57 58/58/58 68/68/68
f 58/58/58 69/69/69 68/68/68
f 58/58/58 59/59/59 69/69/69
f 59/59/59 70/70/70 69/69/69
f 59/59/59 60/60/60 70/70/70
f 60/60/60 71/71/71 70/70/70
f 60/60/60 61/61/61 71/71/71
f 61/61/61 72/72/72 71/71/71
f 61/61/61 62/62/62 72/72/72
f 62/62/62 73/73/73 72/72/72
f 62/62/62 63/63/63 73/73/73
f 63/63/63 74/74/74 73/73/73
f 63/63/63 64/64/64 74/74/74
f 64/64/64 75/75/75 74/74/74
f 64/64/64 65/65/65 75/75/75
f 65/65/65 76/76/76 75/75/75
f 65/65/65 66/66/66 76/76/76
f 66/66/66 77/77/77 76/76/76
f 67/67/67 68/68/68 78/78/78
f 68/68/68 79/79/79 78/78/78
f 68/68/68 69/69/69 79/79/79
f 69/69/69 80/80/80 79/79/79
f 69/69/69 70/70/70 80/80/80
f 70/70/70 81/81/81 80/80/80
f 70/70/70 71/71/71 81/81/81
f 71/71/71 82/82/82 81/81/81
f 71/71/71 72/72/72 82/82/82
f 72/72/72 83/83/83 82/82/82
f 72/72/72 73/73/73 83/83/83
f 73/73/73 84/84/84 83/83/83
f 73/73/73 74/74/74 84/84/84
f 74/74/74 85/85/85 84/84/84
f 74/74/74 75/75/75 85/85/85
f 75/75/75 86/86/86 85/85/85
f 75/75/75 76/76/76 86/86/86
f 76/76/76 87/87/87 86/86/86
f 76/76/76 77/77/77 87/87/87
f 77/77/77 88/88/88 87/87/87
f 78/78/78 79/79/79 89/89/89
f 79/79/79 90/90/90 89/89/89
f 79/79/79 80/80/80 90/90/90
f 80/80/80 91/91/91 90/90/90
f 80/80/80 81/81/81 91/91/91
f 81/81/81 92/92/92 91/91/91
f 81/81/81 82/82/82 92/92/92
f 82/82/82 93/93/93 92/92/92
f 82/82/82 83/83/83 93/93/93
f 83/83/83 94/94/94 93/93/93
f 83/83/83 84/84/84 94/94/94
f 84/84/84 95/95/95 94/94/94
f 84/84/84 85/85/85 95/95/95
f 85/85/85 96/96/96 95/95/95
f 85/85/85 86/86/86 96/96/96
f 86/86/86 97/97/97 96/96/96
f 86/86/86 87/87/87 97/97/97
f 87/87/87 98/98/98 97/97/97
f 87/87/87 88/88/88 98/98/98
f 88/88/88 99/99/99 98/98/98
f 89/89/89 90/90/90 100/100/100
f 90/90/90 101/101/101 100/100/100
f 90/90/90 91/91/91 101/101/101
f 91/91/91 102/102/102 101/101/101
f 91/91/91 92/92/92 102/102/102
f 92/92/92 103/103/103 102/102/102
f 92/92/92 93/93/93 103/103/103
f 93/93/93 104/104/104 103/103/103
f 93/93/93 94/94/94 104/104/104
f 94/94/94 105/105/105 104/104/104
f 94/94/94 95/95/95 105/105/105
f 95/95/95 106/106/106 105/105/105
f 95/95/95 96/96/96 106/106/106
f 96/96/96 107/107/107 106/106/106
f 96/96/96 97/97/97 107/107/107
f 97/97/97 108/108/108 107/107/107
f 97/97/97 98/98/98 108/108/108
f 98/98/98 109/109/109 108/108/108
f 98/98/98 99/99/99 109/109/109
f 99/99/99 110/110/110 109/109/109
f 100/100/100 101/101/101 111/111/111
f 101/101/101 112/112/112 111/111/111
f 101/101/101 102/102/102 112/112/112
f 102/102/102 113/113/113 112/112/112
f 102/102/102 103/103/103 113/113/113
f 103/103/103 114/114/114 113/113/113
f 103/103/103 104/104/104 114/114/114
f 104/104/104 115/115/115 114/114/114
f 104/104/104 105/105/105 115/115/115
f 105/105/105 116/116/116 115/115/115
f 105/105/105 106/106/106 116/116/116
f 106/106/106 117/117/117 116/116/116
f 106/106/106 107/107/107 117/117/117
f 107/107/107 118/118/118 117/117/117
f 107/107/107 108/108/108 118/118/118
f 108/108/108 119/119/119 118/118/118
f 108/108/108 109/109/109 119/119/119
f 109/109/109 120/120/120 119/119/119
f 109/109/109 110/110/110 120/120/120
f 110/110/110 121/121/121 120/120/120
